<mxfile host="app.diagrams.net" modified="2023-12-12T14:05:41.569Z" agent="Mozilla/5.0 (Windows NT 10.0; Win64; x64) AppleWebKit/537.36 (KHTML, like Gecko) Chrome/120.0.0.0 Safari/537.36 Edg/120.0.0.0" version="22.1.7" etag="tpO-vtp7wo3hM7SJOXGN" type="github">
  <diagram name="第 1 页" id="sE7ZRFv6yDv3cEsczEfL">
    <mxGraphModel>
      <root>
        <mxCell id="0" />
        <mxCell id="1" parent="0" />
      </root>
    </mxGraphModel>
  </diagram>
</mxfile>
